<?xml version="1.0" encoding="UTF-8"?>
<svg version="1.1" xmlns="http://www.w3.org/2000/svg" width="956" height="1331">
<path d="M0 0 C2.64684638 4.96687738 2.26517636 9.92031499 2.22273254 15.39353943 C2.22247454 16.45121822 2.22221653 17.50889701 2.22195071 18.59862667 C2.21855448 22.14844084 2.20069429 25.69803387 2.18286133 29.24780273 C2.17734696 31.79049517 2.17267796 34.33318956 2.16879272 36.87588501 C2.15681357 43.06892537 2.13525666 49.26186763 2.10880206 55.45486122 C2.08742433 60.48853155 2.0696322 65.52220229 2.05438805 70.55589485 C2.05220787 71.27230363 2.0500277 71.9887124 2.04778146 72.72683053 C2.04335585 74.18221147 2.03893298 75.63759241 2.03451284 77.09297336 C1.99252782 90.74142512 1.93741765 104.38980089 1.87832262 118.03818769 C1.82466862 130.52389086 1.78741591 143.00957983 1.757924 155.49536144 C1.72749242 168.3167206 1.68604305 181.13800061 1.63263911 193.95928532 C1.60285184 201.15709032 1.57742648 208.3548471 1.56351662 215.55270195 C1.55030247 222.32019436 1.52156119 229.08744756 1.48231125 235.85484695 C1.47030515 238.34048718 1.46339272 240.82615793 1.46190834 243.31182671 C1.45908144 246.70127709 1.43796945 250.09013475 1.41218567 253.47947693 C1.41566901 254.46634489 1.41915234 255.45321285 1.42274123 256.4699859 C1.36102234 261.7300495 0.96704163 265.46315443 -2 270 C-5.24231202 272.99835082 -8.82156245 275.20247547 -12.62109375 277.43359375 C-14.25401367 278.39652344 -14.25401367 278.39652344 -15.91992188 279.37890625 C-17.09241726 280.06515654 -18.26494409 280.75135313 -19.4375 281.4375 C-20.65842866 282.15586683 -21.87912889 282.87462201 -23.09960938 283.59375 C-25.56772025 285.04733811 -28.03698385 286.49893466 -30.50732422 287.94873047 C-35.34463993 290.78828606 -40.17206814 293.64452915 -45 296.5 C-46.78122897 297.55211893 -48.56247934 298.60420164 -50.34375 299.65625 C-56.73269961 303.43153841 -63.11635952 307.21574393 -69.5 311 C-80.43059884 317.4795511 -91.3673767 323.94855384 -102.30859375 330.41015625 C-105.09151708 332.05406016 -107.87394787 333.69879497 -110.65625 335.34375 C-112.54166077 336.4583433 -114.42707741 337.57292669 -116.3125 338.6875 C-117.23546875 339.23317627 -118.1584375 339.77885254 -119.109375 340.34106445 C-123.16338486 342.73691189 -127.21855006 345.13063164 -131.28125 347.51171875 C-139.57364839 352.37226311 -147.82687652 357.29376539 -156.0625 362.25 C-165.28246997 367.79619764 -174.54630443 373.25987433 -183.84912109 378.66577148 C-192.45161977 383.66841019 -201.01324318 388.73813654 -209.56835938 393.82128906 C-215.50651739 397.34654049 -221.45287572 400.8564336 -227.41796875 404.3359375 C-250.50220353 416.07333091 -250.50220353 416.07333091 -271 431 C-271.10852231 432.75855767 -271.14687242 434.52147399 -271.15821838 436.28334045 C-271.1680072 437.42904007 -271.17779602 438.57473969 -271.18788147 439.75515747 C-271.19363693 441.02326263 -271.1993924 442.2913678 -271.20532227 443.59790039 C-271.21489566 444.93793544 -271.22490542 446.27796744 -271.23532104 447.61799622 C-271.26243458 451.26656149 -271.2834091 454.91513979 -271.30332303 458.56375051 C-271.32514295 462.37280116 -271.35255111 466.18181139 -271.37937927 469.99082947 C-271.42936034 477.20854822 -271.47427901 484.42628934 -271.51740164 491.64405197 C-271.56672785 499.85918128 -271.62166304 508.07427004 -271.67708123 516.28936017 C-271.79098435 533.19286932 -271.89780515 550.09641609 -272 567 C-268.16653216 564.81234509 -264.33341225 562.62408211 -260.50059509 560.43528748 C-259.20029277 559.69283646 -257.89990024 558.95054339 -256.59941101 558.2084198 C-248.24664629 553.44174917 -239.91657944 548.64124992 -231.640625 543.7421875 C-226.01066947 540.40980709 -220.36249577 537.10849332 -214.71688843 533.80273438 C-204.31109621 527.70896852 -193.91525878 521.59887052 -183.53759766 515.45727539 C-178.93316992 512.73235435 -174.3245643 510.01496538 -169.70849609 507.30981445 C-161.07704447 502.24960248 -152.49755202 497.10500269 -143.92260742 491.94970703 C-136.13258105 487.2699714 -128.32174579 482.6264962 -120.5 478 C-107.63377508 470.38776017 -94.81153252 462.70383774 -82 455 C-69.12607951 447.25896187 -56.24232564 439.53754242 -43.30126953 431.90917969 C-33.22540626 425.96389567 -23.19989765 419.93516173 -13.17333984 413.90722656 C-7.95075915 410.7683744 -2.72524654 407.63441157 2.5 404.5 C4.5833477 403.25002394 6.66668102 402.00002393 8.75 400.75 C39.4921875 382.3046875 70.234375 363.859375 100.9765625 345.4140625 C102.04148926 344.77509033 103.10641602 344.13611816 104.20361328 343.4777832 C106.40244908 342.1585143 108.60134238 340.83934123 110.80029297 339.52026367 C117.57399842 335.45678191 117.57399842 335.45678191 124.34375 331.38671875 C130.74938816 327.53287293 137.17529177 323.71720612 143.625 319.9375 C148.6177595 317.01146134 153.5805777 314.04856968 158.5 311 C163.31653486 308.01577766 168.17362533 305.11323462 173.0625 302.25 C179.333917 298.57681252 185.58241892 294.8678946 191.8125 291.125 C192.65723877 290.61751221 193.50197754 290.11002441 194.37231445 289.5871582 C197.68874941 287.59376743 201.00441991 285.59910829 204.31982422 283.60400391 C212.6627162 278.58463009 221.01374562 273.57965856 229.390625 268.6171875 C230.04465302 268.22969833 230.69868103 267.84220917 231.37252808 267.44297791 C232.0376944 267.04889236 232.70286072 266.65480682 233.38818359 266.2487793 C234.75880424 265.43671181 236.12940957 264.62461848 237.5 263.8125 C238.18330383 263.4076236 238.86660767 263.00274719 239.57061768 262.58560181 C249.29111261 256.82328189 258.97499052 251.00454151 268.625 245.125 C278.37972793 239.18266877 288.17535215 233.31645137 298.01953125 227.5234375 C304.80138228 223.53245718 311.56822818 219.51628469 318.33435059 215.49871826 C320.36363082 214.29385888 322.39322915 213.08953677 324.42285156 211.88525391 C331.47235477 207.70060219 338.51047158 203.49763971 345.53781128 199.27587891 C351.69851362 195.57660162 357.87846966 191.91013476 364.0625 188.25 C365.22885902 187.55919359 366.3951998 186.86835638 367.56152344 186.17749023 C374.02841339 182.3475376 380.49881592 178.52355642 386.97119141 174.70288086 C393.72208441 170.71770689 400.4711868 166.73073976 407.1875 162.6875 C422.69039703 153.35471163 438.28174558 144.16442919 453.88818359 135.00610352 C456.52617457 133.45783834 459.1170982 131.9188652 461.6328125 130.17578125 C464.5787538 128.71253318 465.88353992 129.24013237 469 130 C469.1166769 158.11103833 469.20491149 186.22204049 469.25906086 214.33327198 C469.28486893 227.38510533 469.32006932 240.43678845 469.37719727 253.48852539 C469.42695237 264.86122331 469.45927205 276.23381247 469.47044247 287.6066162 C469.47697457 293.63137789 469.4923811 299.65582833 469.52865028 305.68049049 C469.56248488 311.34643179 469.57307828 317.01193244 469.56553841 322.67796516 C469.56691857 324.76176596 469.57692523 326.84558089 469.59602737 328.92929459 C469.6207694 331.76642523 469.61497435 334.60187462 469.60127258 337.43904114 C469.61583679 338.27074745 469.630401 339.10245375 469.64540654 339.95936328 C469.61523914 342.25750446 469.61523914 342.25750446 469 346 C466.62941265 347.95400524 466.62941265 347.95400524 464 349 C462.67742187 349.64195312 462.67742187 349.64195312 461.328125 350.296875 C460.31234375 350.77640625 459.2965625 351.2559375 458.25 351.75 C449.14345433 356.19723857 440.58050572 361.57588618 431.921875 366.82421875 C424.71980066 371.18570417 417.45851241 375.44225943 410.1875 379.6875 C402.0981608 384.41428477 394.02240184 389.16008011 386 394 C374.33161367 401.03552921 362.56224254 407.89861012 350.80078125 414.77685547 C344.55262113 418.43104233 338.3073536 422.09016611 332.0625 425.75 C331.45391144 426.10661713 330.84532288 426.46323425 330.21829224 426.83065796 C322.46968227 431.37163 314.72914815 435.92595773 307 440.5 C288.73897825 451.30615408 270.41931497 462.01283075 252.0871582 472.69775391 C244.32241153 477.22488714 236.56602528 481.76618794 228.8125 486.3125 C228.2065097 486.66777771 227.60051941 487.02305542 226.97616577 487.38909912 C220.80378273 491.00789725 214.63224437 494.62812512 208.46302795 498.25231934 C194.99510376 506.16377584 181.50575308 514.03401354 167.96850586 521.82641602 C161.42318897 525.59581952 154.89623061 529.39362141 148.3918457 533.2331543 C142.41855307 536.75852998 136.42955815 540.25662532 130.4375 543.75 C128.91165283 544.63957397 128.91165283 544.63957397 127.35498047 545.54711914 C125.27429707 546.76000691 123.19356755 547.97281555 121.11279297 549.18554688 C117.06968734 551.54228107 113.02734631 553.90032449 108.98510742 556.25854492 C106.98924739 557.42289183 104.99331598 558.58711639 102.99731445 559.7512207 C98.02052377 562.6538432 93.04456191 565.55786812 88.0703125 568.46484375 C77.68988041 574.5290577 67.29436924 580.56540327 56.875 586.5625 C48.8877074 591.16047522 40.9258168 595.79684749 33 600.5 C23.98357196 605.85031748 14.9148579 611.10549144 5.82788086 616.33496094 C-2.61193199 621.19346965 -11.02894039 626.08990808 -19.43725586 631.00268555 C-25.59549429 634.59998115 -31.76223224 638.18202521 -37.9375 641.75 C-43.70113744 645.08131522 -49.45242739 648.43224355 -55.1875 651.8125 C-71.32627251 661.32087928 -87.51185972 670.74302509 -103.78598022 680.01785278 C-112.91118466 685.21952976 -122.00051342 690.47980241 -131.06689453 695.78344727 C-143.77360125 703.21410379 -156.53562593 710.54885755 -169.29101562 717.89550781 C-172.56931059 719.78398492 -175.84725994 721.67305994 -179.125 723.5625 C-180.19669434 724.18012207 -181.26838867 724.79774414 -182.37255859 725.43408203 C-189.76500069 729.6987375 -197.1354115 733.99997202 -204.5 738.3125 C-212.20323405 742.82238201 -219.95321063 747.22705029 -227.77416992 751.52905273 C-232.34558858 754.05302459 -236.84822235 756.6663644 -241.3125 759.375 C-247.59855678 763.18694267 -253.94066058 766.89571219 -260.3125 770.5625 C-261.23909424 771.09987793 -262.16568848 771.63725586 -263.12036133 772.19091797 C-263.9842749 772.6860791 -264.84818848 773.18124023 -265.73828125 773.69140625 C-266.51212158 774.13685791 -267.28596191 774.58230957 -268.08325195 775.04125977 C-270 776 -270 776 -272 776 C-271.99924056 776.62345161 -271.99848112 777.24690322 -271.99769866 777.8892473 C-271.95298203 814.80670538 -271.91864689 851.72415947 -271.89786934 888.64163908 C-271.89536781 893.07033755 -271.89277917 897.49903598 -271.89013672 901.92773438 C-271.8896121 902.80944111 -271.88908748 903.69114785 -271.88854696 904.59957297 C-271.87983468 918.89248708 -271.86406021 933.18538517 -271.84569441 947.47828977 C-271.8270182 962.13455926 -271.81588811 976.79082033 -271.81182301 991.44710124 C-271.80907321 1000.4971946 -271.80037558 1009.54724269 -271.78416707 1018.59732212 C-271.77362828 1024.79591504 -271.77039229 1030.99448442 -271.77299725 1037.19308566 C-271.7742834 1040.77403571 -271.77225583 1044.35490642 -271.76158905 1047.93584251 C-271.75013065 1051.81064161 -271.75400215 1055.68533588 -271.75949097 1059.56015015 C-271.75366528 1060.70215421 -271.7478396 1061.84415828 -271.74183738 1063.02076852 C-271.74581948 1064.05235232 -271.74980158 1065.08393611 -271.75390434 1066.14678001 C-271.7531449 1067.04216055 -271.75238546 1067.93754109 -271.75160301 1068.86005437 C-272 1071 -272 1071 -274 1073 C-276.76622157 1073.19558277 -279.4321956 1073.26481249 -282.19946289 1073.24723816 C-283.0573066 1073.24965257 -283.91515032 1073.25206699 -284.7989893 1073.25455457 C-287.69028769 1073.26021661 -290.58136758 1073.25150962 -293.47265625 1073.24291992 C-295.53864604 1073.24399218 -297.60463553 1073.24593003 -299.67062378 1073.24867249 C-305.29445674 1073.25353291 -310.91821074 1073.24585023 -316.54203415 1073.23571944 C-322.41612412 1073.22695837 -328.29021147 1073.22869601 -334.16430664 1073.2290802 C-344.0304497 1073.22814267 -353.89656207 1073.21944676 -363.76269531 1073.20581055 C-375.1836617 1073.19008409 -386.60459444 1073.18481239 -398.02557087 1073.1855461 C-408.99368572 1073.18615566 -419.96178957 1073.18105683 -430.92990112 1073.17275429 C-435.60611049 1073.16921579 -440.28231597 1073.16739023 -444.95852661 1073.16686058 C-450.4610531 1073.16585881 -455.96355115 1073.15977579 -461.46606827 1073.14969444 C-463.49060009 1073.14676421 -465.51513518 1073.14554512 -467.53966904 1073.14612198 C-470.29332234 1073.14660982 -473.046895 1073.14098511 -475.80053711 1073.13371277 C-476.61044633 1073.13526137 -477.42035555 1073.13680997 -478.25480747 1073.1384055 C-483.77164239 1073.11417881 -483.77164239 1073.11417881 -486 1072 C-486.0513953 997.2028706 -486.0990969 922.40573908 -486.12702942 847.6085968 C-486.12744359 846.502367 -486.12785776 845.3961372 -486.12828448 844.25638529 C-486.13726227 820.21762835 -486.14557295 796.17887122 -486.15319599 772.14011381 C-486.15693815 760.35227961 -486.16082779 748.56444546 -486.16479492 736.77661133 C-486.1651872 735.60355209 -486.16557948 734.43049285 -486.16598364 733.22188637 C-486.17877792 695.16892816 -486.20131947 657.11598329 -486.22889166 619.06303316 C-486.25716375 579.97332505 -486.27565036 540.88362432 -486.28174497 501.79390616 C-486.28260949 496.27843979 -486.2835864 490.76297344 -486.28463173 485.2475071 C-486.284834 484.16193624 -486.28503627 483.07636538 -486.28524467 481.95789843 C-486.28879601 464.45158204 -486.30272683 446.9452884 -486.3204961 429.4389813 C-486.33812082 411.85838883 -486.34491325 394.27781902 -486.34050413 376.69721802 C-486.33821462 366.23987449 -486.34437466 355.7826136 -486.36239263 345.32528492 C-486.37359333 338.35088913 -486.37402574 331.37654783 -486.36549544 324.40214837 C-486.36094069 320.42110349 -486.3612635 316.44021555 -486.37464955 312.45918711 C-486.38671614 308.8433125 -486.38518179 305.22771849 -486.37241993 301.6118486 C-486.36923909 299.68664407 -486.3809024 297.76143286 -486.39302543 295.83626387 C-486.38628355 294.70428948 -486.37954167 293.5723151 -486.37259549 292.40603846 C-486.37306343 291.42694808 -486.37353137 290.44785771 -486.37401349 289.43909792 C-485.93542779 286.57889772 -485.24696874 285.75138193 -483 284 C-481.79822256 283.18661941 -480.56719214 282.41548072 -479.31640625 281.6796875 C-478.56786377 281.23544434 -477.81932129 280.79120117 -477.0480957 280.33349609 C-476.22784912 279.85219238 -475.40760254 279.37088867 -474.5625 278.875 C-472.75467326 277.80298515 -470.94741463 276.73001188 -469.140625 275.65625 C-468.15900391 275.07359375 -467.17738281 274.4909375 -466.16601562 273.890625 C-460.9694289 270.7874196 -455.80341846 267.63406907 -450.63464355 264.48486328 C-441.91282329 259.17242342 -433.17858234 253.88644098 -424.3605957 248.73461914 C-418.21321367 245.13906566 -412.10510787 241.47929874 -406 237.8125 C-404.93974609 237.17570313 -403.87949219 236.53890625 -402.78710938 235.8828125 C-398.45469678 233.2797133 -394.1230835 230.67528579 -389.79150391 228.07080078 C-375.23100974 219.31750325 -360.63685522 210.62496008 -346 202 C-334.36889671 195.14357639 -322.75320051 188.26429066 -311.18261719 181.30615234 C-303.92348295 176.94462012 -296.62643713 172.64976765 -289.32226562 168.36425781 C-278.21198534 161.83731855 -267.11520723 155.28742903 -256.07543945 148.6418457 C-249.92071329 144.94215419 -243.7414135 141.28411073 -237.5625 137.625 C-236.41284126 136.94417409 -235.26318306 136.26334725 -234.11352539 135.58251953 C-233.23929176 135.0647998 -233.23929176 135.0647998 -232.34739685 134.53662109 C-231.7545137 134.1855127 -231.16163055 133.8344043 -230.55078125 133.47265625 C-229.94754532 133.1154248 -229.34430939 132.75819336 -228.72279358 132.39013672 C-221.91816727 128.36004213 -215.11633992 124.32523498 -208.31564331 120.28851318 C-206.96573152 119.48730532 -205.61573903 118.68623341 -204.26565552 117.88531494 C-196.64723639 113.36569634 -189.03976086 108.82858948 -181.44625854 104.26722717 C-175.43475824 100.65745728 -169.40794791 97.07381049 -163.375 93.5 C-162.53391693 93.001586 -162.53391693 93.001586 -161.67584229 92.49310303 C-148.85963587 84.89995342 -136.00582366 77.37119804 -123.15039062 69.84472656 C-118.97373964 67.39906825 -114.79827546 64.95141366 -110.625 62.5 C-110.05120605 62.16371582 -109.47741211 61.82743164 -108.88623047 61.48095703 C-104.57355631 58.94617576 -100.28431325 56.37273988 -95.99609375 53.796875 C-88.1583197 49.08906976 -80.30067222 44.41522851 -72.4375 39.75 C-71.0324699 38.91609835 -69.62744062 38.08219534 -68.22241211 37.24829102 C-36.77397089 18.58640707 -36.77397089 18.58640707 -22.79223633 10.40649414 C-19.6632386 8.57562052 -16.54719768 6.73030451 -13.4609375 4.828125 C-12.40132813 4.18359375 -11.34171875 3.5390625 -10.25 2.875 C-9.34765625 2.31554687 -8.4453125 1.75609375 -7.515625 1.1796875 C-4.77575916 -0.10515642 -2.98806121 -0.2472137 0 0 Z " fill="#7746AC" transform="translate(486,0)"/>
<path d="M0 0 C0.92354284 33.41126268 1.74533434 66.81717871 1.93447208 100.24179077 C1.98709307 109.05112416 2.08675777 117.85540188 2.29272461 126.66259766 C2.47507362 134.46449826 2.57206769 142.26208017 2.56782717 150.06619167 C2.56839592 154.16372051 2.60887469 158.25108861 2.75328255 162.34628296 C3.5788987 186.89045286 3.5788987 186.89045286 -2.35559845 193.70486641 C-8.08270172 198.29247911 -14.35077677 201.23050954 -21.16338444 203.8587532 C-24.98244602 205.39526448 -28.28584588 207.37962939 -31.7734375 209.55859375 C-32.87067139 210.20328613 -33.96790527 210.84797852 -35.09838867 211.51220703 C-36.17967041 212.14755371 -37.26095215 212.78290039 -38.375 213.4375 C-50.80654798 220.73503491 -63.28134461 227.95567599 -75.77636719 235.14404297 C-79.07384848 237.04251713 -82.36926917 238.94452132 -85.6640625 240.84765625 C-95.59784376 246.5854281 -105.53561511 252.31551004 -115.5 258 C-131.77917103 267.28872191 -148.01117716 276.65831732 -164.1875 286.125 C-172.86704485 291.20304154 -181.59848243 296.18033346 -190.36279297 301.11035156 C-198.22087647 305.53913692 -206.01707827 310.0686307 -213.80200195 314.62451172 C-229.86395361 324.02289062 -245.99586738 333.30004781 -262.16650391 342.51000977 C-268.82774778 346.31143595 -275.44651226 350.18298443 -282.0625 354.0625 C-290.23599801 358.85154166 -298.46961553 363.50230644 -306.78686523 368.03637695 C-314.71263681 372.36550006 -322.51671224 376.89204004 -330.31835938 381.43994141 C-335.49631808 384.45224623 -340.68611979 387.44406072 -345.875 390.4375 C-346.98552734 391.07840576 -348.09605469 391.71931152 -349.24023438 392.37963867 C-356.86744688 396.77845162 -364.51038762 401.14893868 -372.16088867 405.50708008 C-378.86394628 409.33309642 -385.52777591 413.22415452 -392.1875 417.125 C-399.77525651 421.56791809 -407.39644941 425.92911664 -415.10717773 430.15478516 C-419.52419889 432.58786886 -423.88956908 435.09615262 -428.234375 437.65625 C-429.31332031 438.29175781 -430.39226562 438.92726563 -431.50390625 439.58203125 C-433.62410555 440.83476032 -435.74143325 442.09236578 -437.85546875 443.35546875 C-438.82613281 443.92910156 -439.79679688 444.50273438 -440.796875 445.09375 C-441.65635742 445.60615234 -442.51583984 446.11855469 -443.40136719 446.64648438 C-446.20091366 448.10464725 -449.00044277 449.03234262 -452 450 C-451.99962028 450.87948394 -451.99924056 451.75896787 -451.99884933 452.66510284 C-451.97649302 504.73863204 -451.95932447 556.81216074 -451.94893467 608.88569378 C-451.9476839 615.13196644 -451.94638958 621.37823908 -451.94506836 627.62451172 C-451.94467489 629.48986841 -451.94467489 629.48986841 -451.94427348 631.39290906 C-451.93991685 651.55418893 -451.93202934 671.71546596 -451.9228472 691.87674414 C-451.91351047 712.54920047 -451.90794435 733.22165531 -451.90591151 753.89411366 C-451.90453632 766.66003609 -451.90018596 779.4259505 -451.89208353 792.19187047 C-451.88681583 800.93445801 -451.88519576 809.67704138 -451.88649862 818.41963039 C-451.88714196 823.47089833 -451.88612492 828.5221522 -451.88079453 833.57341766 C-451.87595714 838.19095176 -451.87566361 842.80846224 -451.87910111 847.42599739 C-451.87952646 849.10300756 -451.87823358 850.78001915 -451.87511682 852.45702647 C-451.87114654 854.72373991 -451.87324061 856.99036628 -451.87695217 859.25707817 C-451.87657245 860.52002799 -451.87619273 861.78297781 -451.8758015 863.08419883 C-452 866 -452 866 -453 868 C-469.75377844 868.15561406 -486.5076057 868.3035619 -503.26152611 868.4429636 C-511.04482865 868.50789392 -518.82809748 868.57511295 -526.61132812 868.64819336 C-533.41405132 868.71206099 -540.21679845 868.77115322 -547.01960814 868.82505554 C-550.60448526 868.85361286 -554.18931301 868.88418846 -557.77412033 868.92053413 C-578.54102423 869.12899277 -599.24758276 868.74610743 -620 868 C-620.80215174 862.36967395 -621.14366944 856.93179187 -621.12863445 851.24934006 C-621.13038749 850.40049759 -621.13214053 849.55165513 -621.13394669 848.67709017 C-621.13859221 845.83766847 -621.13614494 842.99829831 -621.13371277 840.15887451 C-621.13558145 838.10066983 -621.13788238 836.04246551 -621.14057809 833.98426175 C-621.14669503 828.3320712 -621.14656263 822.67989544 -621.14538372 817.02770233 C-621.14517969 810.93091097 -621.15069847 804.83412436 -621.15544128 798.73733521 C-621.16374682 786.79626106 -621.166509 774.85519169 -621.16705366 762.9141154 C-621.16751328 753.21277514 -621.169572 743.51143648 -621.17275429 733.81009674 C-621.17365182 731.01725173 -621.17454164 728.22440672 -621.17542917 725.43156171 C-621.17565021 724.73726296 -621.17587126 724.04296421 -621.17609901 723.32762611 C-621.18225145 703.80401301 -621.18619972 684.28040046 -621.18575573 664.75678635 C-621.18574015 664.02095094 -621.18572457 663.28511553 -621.18570852 662.52698208 C-621.18562541 658.797459 -621.18552637 655.06793593 -621.18542381 651.33841285 C-621.18540387 650.59771241 -621.18538392 649.85701196 -621.18536337 649.09386605 C-621.18532294 647.59599254 -621.18528114 646.09811904 -621.18523798 644.60024554 C-621.18462474 621.27711059 -621.19214154 597.95399017 -621.20581055 574.63085938 C-621.22115955 548.43037232 -621.22977757 522.22989481 -621.22884732 496.02940297 C-621.22877269 493.23781538 -621.22872399 490.44622779 -621.22869301 487.6546402 C-621.22868135 486.96727295 -621.2286697 486.27990571 -621.22865769 485.57170915 C-621.22862688 474.4967611 -621.23502011 463.42182564 -621.24362527 452.34688133 C-621.25208748 441.22636474 -621.25293076 430.10586293 -621.24651595 418.9853439 C-621.24323829 412.95758294 -621.24323882 406.92986774 -621.2518692 400.90211105 C-621.25967992 395.39039975 -621.2583589 389.87877092 -621.24958507 384.36706176 C-621.24803807 382.36724259 -621.24991085 380.36741742 -621.25544515 378.3676053 C-621.26244339 375.66073373 -621.25726064 372.95415651 -621.24888897 370.24729538 C-621.25385715 369.46112618 -621.25882533 368.67495699 -621.26394406 367.86496449 C-621.2392243 364.11454547 -621.21041836 361.12513315 -619 358 C-616.84643555 356.4387207 -616.84643555 356.4387207 -614.13671875 354.92578125 C-613.11876221 354.34908691 -612.10080566 353.77239258 -611.05200195 353.17822266 C-609.94171631 352.56253418 -608.83143066 351.9468457 -607.6875 351.3125 C-605.92938471 350.31854132 -604.17129182 349.32454135 -602.41429138 348.32861328 C-601.1833727 347.63137725 -599.95171892 346.9354376 -598.71937561 346.24072266 C-591.70308525 342.28291682 -584.75709021 338.20687857 -577.8125 334.125 C-576.56334193 333.39196053 -575.314156 332.65896854 -574.06494141 331.92602539 C-566.91504926 327.72833175 -559.78752842 323.49622663 -552.6875 319.21484375 C-537.22958378 309.90810616 -521.62438136 300.8452481 -506.03222656 291.76611328 C-500.02253855 288.26578453 -494.01597388 284.76009774 -488.00927734 281.25463867 C-482.96149826 278.30920894 -477.91207466 275.36666943 -472.859375 272.4296875 C-462.72169135 266.53327966 -452.61593853 260.59239102 -442.57275391 254.53637695 C-435.10742717 250.04367237 -427.58281702 245.65560462 -420.05151367 241.2746582 C-413.4568452 237.43727281 -406.87758983 233.57525752 -400.3125 229.6875 C-388.77556551 222.85759285 -377.20867994 216.07918863 -365.63973999 209.30371094 C-361.27450512 206.74705502 -356.91037744 204.18851769 -352.546875 201.62890625 C-333.46529932 190.43627887 -314.37564748 179.25781806 -295.22460938 168.18432617 C-281.95365014 160.50696968 -268.7095267 152.78259528 -255.5 145 C-241.15234563 136.54762522 -226.78185246 128.13412133 -212.30859375 119.8984375 C-207.85245712 117.34155154 -203.42756165 114.7331247 -199.00244141 112.12304688 C-192.82467131 108.48055171 -186.63312343 104.86203549 -180.4375 101.25 C-179.42123535 100.65751465 -178.4049707 100.0650293 -177.35791016 99.45458984 C-175.27625037 98.24113212 -173.19454433 97.02775375 -171.11279297 95.81445312 C-167.06968734 93.45771893 -163.02734631 91.09967551 -158.98510742 88.74145508 C-156.98924739 87.57710817 -154.99331598 86.41288361 -152.99731445 85.2487793 C-148.02052377 82.3461568 -143.04456191 79.44213188 -138.0703125 76.53515625 C-127.73016458 70.49433299 -117.37651449 64.47816893 -107 58.5 C-91.83202286 49.76105193 -76.70107421 40.95912604 -61.625 32.0625 C-53.44467497 27.23516288 -45.2138171 22.49587839 -36.97241211 17.77368164 C-31.47888875 14.61828921 -26.01945306 11.42286032 -20.6171875 8.11328125 C-19.61647217 7.50460205 -18.61575684 6.89592285 -17.5847168 6.26879883 C-15.69579778 5.11558249 -13.81401558 3.9505689 -11.94067383 2.7722168 C-11.09786865 2.25957275 -10.25506348 1.74692871 -9.38671875 1.21875 C-8.65670654 0.76435547 -7.92669434 0.30996094 -7.17456055 -0.15820312 C-4.41862245 -1.2250578 -2.82782451 -0.66101149 0 0 Z " fill="#7B42A9" transform="translate(920,462)"/>
<path d="M0 0 C2.64684638 4.96687738 2.26517636 9.92031499 2.22273254 15.39353943 C2.22247454 16.45121822 2.22221653 17.50889701 2.22195071 18.59862667 C2.21855448 22.14844084 2.20069429 25.69803387 2.18286133 29.24780273 C2.17734696 31.79049517 2.17267796 34.33318956 2.16879272 36.87588501 C2.15681357 43.06892537 2.13525666 49.26186763 2.10880206 55.45486122 C2.08742433 60.48853155 2.0696322 65.52220229 2.05438805 70.55589485 C2.05220787 71.27230363 2.0500277 71.9887124 2.04778146 72.72683053 C2.04335585 74.18221147 2.03893298 75.63759241 2.03451284 77.09297336 C1.99252782 90.74142512 1.93741765 104.38980089 1.87832262 118.03818769 C1.82466862 130.52389086 1.78741591 143.00957983 1.757924 155.49536144 C1.72749242 168.3167206 1.68604305 181.13800061 1.63263911 193.95928532 C1.60285184 201.15709032 1.57742648 208.3548471 1.56351662 215.55270195 C1.55030247 222.32019436 1.52156119 229.08744756 1.48231125 235.85484695 C1.47030515 238.34048718 1.46339272 240.82615793 1.46190834 243.31182671 C1.45908144 246.70127709 1.43796945 250.09013475 1.41218567 253.47947693 C1.41566901 254.46634489 1.41915234 255.45321285 1.42274123 256.4699859 C1.36102234 261.7300495 0.96704163 265.46315443 -2 270 C-5.24231202 272.99835082 -8.82156245 275.20247547 -12.62109375 277.43359375 C-14.25401367 278.39652344 -14.25401367 278.39652344 -15.91992188 279.37890625 C-17.09241726 280.06515654 -18.26494409 280.75135313 -19.4375 281.4375 C-20.65842866 282.15586683 -21.87912889 282.87462201 -23.09960938 283.59375 C-25.56772025 285.04733811 -28.03698385 286.49893466 -30.50732422 287.94873047 C-35.34463993 290.78828606 -40.17206814 293.64452915 -45 296.5 C-46.78122897 297.55211893 -48.56247934 298.60420164 -50.34375 299.65625 C-56.73269961 303.43153841 -63.11635952 307.21574393 -69.5 311 C-80.43059884 317.4795511 -91.3673767 323.94855384 -102.30859375 330.41015625 C-105.09151708 332.05406016 -107.87394787 333.69879497 -110.65625 335.34375 C-112.54166077 336.4583433 -114.42707741 337.57292669 -116.3125 338.6875 C-117.23546875 339.23317627 -118.1584375 339.77885254 -119.109375 340.34106445 C-123.16338486 342.73691189 -127.21855006 345.13063164 -131.28125 347.51171875 C-139.57364839 352.37226311 -147.82687652 357.29376539 -156.0625 362.25 C-165.28246997 367.79619764 -174.54630443 373.25987433 -183.84912109 378.66577148 C-192.45161977 383.66841019 -201.01324318 388.73813654 -209.56835938 393.82128906 C-215.50651739 397.34654049 -221.45287572 400.8564336 -227.41796875 404.3359375 C-250.50220353 416.07333091 -250.50220353 416.07333091 -271 431 C-271.10849442 432.74588625 -271.14687036 434.49615931 -271.15821838 436.24537659 C-271.1680072 437.38266205 -271.17779602 438.51994751 -271.18788147 439.69169617 C-271.19363693 440.95045059 -271.1993924 442.20920502 -271.20532227 443.50610352 C-271.21522186 444.82298157 -271.22512146 446.13985962 -271.23532104 447.49664307 C-271.26243433 451.11834955 -271.28340898 454.74006915 -271.30332303 458.36182141 C-271.32514311 462.14284503 -271.35255119 465.92382792 -271.37937927 469.70481873 C-271.42936013 476.86941336 -271.47427888 484.03403054 -271.51740164 491.19866937 C-271.56672802 499.35334054 -271.62166315 507.50797086 -271.67708123 515.66260254 C-271.79098403 532.4416974 -271.8978049 549.22082966 -272 566 C-272.66 566 -273.32 566 -274 566 C-274.226875 566.70125 -274.45375 567.4025 -274.6875 568.125 C-278.08716116 575.57187683 -283.68509195 579.06556018 -290.5 583.125 C-291.42345215 583.68558105 -292.3469043 584.24616211 -293.29833984 584.82373047 C-302.26363686 590.23390208 -311.35885388 595.41591312 -320.47412109 600.56787109 C-336.80162196 609.82527686 -352.97931892 619.36172998 -369.05859375 629.04296875 C-373.84143042 631.91661304 -378.66452074 634.71611708 -383.5 637.5 C-391.89383877 642.34912131 -400.25133394 647.20695979 -408.375 652.5 C-413.17158717 655.58644032 -418.10966572 658.12810513 -423.2734375 660.54296875 C-426.16054357 662.08579191 -428.46783662 663.93569177 -431 666 C-433.16796875 667.265625 -433.16796875 667.265625 -435.1875 668.25 C-435.86167969 668.58515625 -436.53585937 668.9203125 -437.23046875 669.265625 C-439 670 -439 670 -441 670 C-441 670.66 -441 671.32 -441 672 C-443.44111325 673.67390623 -445.80478747 674.9238195 -448.5625 676 C-451.10174947 677.04174337 -452.81761793 678.35199559 -455 680 C-461.33995606 683.87294387 -468.0780688 687.03644866 -474.765625 690.25390625 C-477.83696352 691.91198393 -480.29902397 693.81144318 -483 696 C-483.66 696 -484.32 696 -485 696 C-485.38907741 643.81158623 -485.68864613 591.62331894 -485.8681106 539.43374021 C-485.88937271 533.27288172 -485.91137618 527.1120261 -485.93383789 520.95117188 C-485.93829717 519.72465231 -485.94275645 518.49813274 -485.94735085 517.23444591 C-486.02133193 497.37235496 -486.15537284 477.51110013 -486.31159753 457.64950527 C-486.4705527 437.27086553 -486.56499426 416.89266377 -486.59950441 396.51342952 C-486.62283631 383.93690233 -486.69652759 371.3627382 -486.83457994 358.78693847 C-486.92441837 350.16410616 -486.9516088 341.54249596 -486.92952342 332.91922958 C-486.91862779 327.94231529 -486.93535624 322.96952945 -487.02649307 317.99334908 C-487.53452413 288.85054987 -487.53452413 288.85054987 -483.32769847 282.459373 C-479.41456063 278.73801945 -475.1836312 276.91810653 -470.00804222 275.57689166 C-467.18928693 274.76708975 -464.9248194 273.32317289 -462.4921875 271.71484375 C-461.72237549 271.25231201 -460.95256348 270.78978027 -460.15942383 270.31323242 C-459.40556396 269.85924072 -458.6517041 269.40524902 -457.875 268.9375 C-456.16797145 267.91145385 -454.46094018 266.88541221 -452.75390625 265.859375 C-451.94066895 265.37017578 -451.12743164 264.88097656 -450.28955078 264.37695312 C-447.13201936 262.47798989 -443.97234864 260.5826039 -440.8125 258.6875 C-439.61456859 257.96877458 -438.41665267 257.25002332 -437.21875 256.53125 C-427.21875 250.53125 -427.21875 250.53125 -424.06396484 248.63842773 C-421.88454549 247.3307434 -419.70518413 246.02296242 -417.52587891 244.71508789 C-412.66180015 241.79613192 -407.79733925 238.87783823 -402.9296875 235.96484375 C-401.34889152 235.01834074 -399.76816159 234.07172742 -398.1875 233.125 C-397.00401978 232.41633789 -397.00401978 232.41633789 -395.79663086 231.69335938 C-391.00178153 228.81692475 -386.22111792 225.91826914 -381.44921875 223.00390625 C-368.91611566 215.35213324 -356.33233089 207.82695222 -343.58837891 200.52856445 C-333.98958582 195.02236495 -324.50484852 189.33664849 -315.02734375 183.625 C-309.30658084 180.17842597 -303.56475157 176.76871027 -297.8125 173.375 C-296.92135498 172.84922363 -296.03020996 172.32344727 -295.11206055 171.78173828 C-293.31899829 170.7243539 -291.52578543 169.66722486 -289.73242188 168.61035156 C-272.87226835 158.67793997 -272.87226835 158.67793997 -256.07421875 148.64111328 C-249.91990136 144.94166294 -243.74100512 141.28386889 -237.5625 137.625 C-236.41284126 136.94417409 -235.26318306 136.26334725 -234.11352539 135.58251953 C-233.23929176 135.0647998 -233.23929176 135.0647998 -232.34739685 134.53662109 C-231.7545137 134.1855127 -231.16163055 133.8344043 -230.55078125 133.47265625 C-229.64592735 132.93680908 -229.64592735 132.93680908 -228.72279358 132.39013672 C-221.91816727 128.36004213 -215.11633992 124.32523498 -208.31564331 120.28851318 C-206.96573152 119.48730532 -205.61573903 118.68623341 -204.26565552 117.88531494 C-196.64723639 113.36569634 -189.03976086 108.82858948 -181.44625854 104.26722717 C-175.43475824 100.65745728 -169.40794791 97.07381049 -163.375 93.5 C-162.53391693 93.001586 -162.53391693 93.001586 -161.67584229 92.49310303 C-148.85963587 84.89995342 -136.00582366 77.37119804 -123.15039062 69.84472656 C-118.97373964 67.39906825 -114.79827546 64.95141366 -110.625 62.5 C-110.05120605 62.16371582 -109.47741211 61.82743164 -108.88623047 61.48095703 C-104.57355631 58.94617576 -100.28431325 56.37273988 -95.99609375 53.796875 C-88.1583197 49.08906976 -80.30067222 44.41522851 -72.4375 39.75 C-71.0324699 38.91609835 -69.62744062 38.08219534 -68.22241211 37.24829102 C-36.77397089 18.58640707 -36.77397089 18.58640707 -22.79223633 10.40649414 C-19.6632386 8.57562052 -16.54719768 6.73030451 -13.4609375 4.828125 C-12.40132813 4.18359375 -11.34171875 3.5390625 -10.25 2.875 C-9.34765625 2.31554687 -8.4453125 1.75609375 -7.515625 1.1796875 C-4.77575916 -0.10515642 -2.98806121 -0.2472137 0 0 Z " fill="#31AF90" transform="translate(486,0)"/>
<path d="M0 0 C0.99 0 1.98 0 3 0 C3.022865 37.5642333 3.04049753 75.12846556 3.05106533 112.69270441 C3.05231611 117.12269162 3.05361042 121.55267882 3.05493164 125.98266602 C3.05532511 127.30561959 3.05532511 127.30561959 3.05572652 128.65529949 C3.0600835 142.95534931 3.06797121 157.25539512 3.0771528 171.55544256 C3.08648855 186.21735804 3.09205544 200.87927141 3.09408849 215.54118973 C3.09546389 224.59587761 3.09981534 233.65055419 3.10791647 242.70523859 C3.11318296 248.90568934 3.11480452 255.10613421 3.11350138 261.30658703 C3.11285784 264.88941512 3.11387721 268.47222338 3.11920547 272.05504799 C3.1249267 275.93017437 3.1230011 279.8052745 3.12025452 283.68040466 C3.12462378 285.39778002 3.12462378 285.39778002 3.12908131 287.14984983 C3.12709026 288.17944258 3.12509921 289.20903532 3.12304783 290.26982784 C3.12342755 291.1655881 3.12380727 292.06134836 3.1241985 292.98425287 C3 295 3 295 2 296 C-0.70592245 296.09785121 -3.38631176 296.1299368 -6.09266663 296.12025452 C-6.95106705 296.12110894 -7.80946747 296.12196337 -8.69388002 296.12284368 C-11.5928971 296.12450112 -14.49185732 296.11897282 -17.39086914 296.11352539 C-19.45995584 296.11324355 -21.52904263 296.11340119 -23.59812927 296.1139679 C-29.23426263 296.11425599 -34.87037491 296.10835733 -40.50650334 296.10139394 C-46.38954262 296.09516239 -52.27258232 296.09455676 -58.15562439 296.09336853 C-69.30454228 296.09025462 -80.45345042 296.08204044 -91.602364 296.07201904 C-104.29138268 296.06085974 -116.98040182 296.05534792 -129.66942418 296.05032361 C-155.77962153 296.03985787 -181.88981022 296.02225729 -208 296 C-208 295.67 -208 295.34 -208 295 C-170.71 295 -133.42 295 -95 295 C-95.06960937 277.90058594 -95.13921875 260.80117187 -95.2109375 243.18359375 C-95.24158437 232.36913522 -95.27071532 221.55470804 -95.29296875 210.74023438 C-95.30471586 205.06013892 -95.31683872 199.38004446 -95.32958984 193.69995117 C-95.33117234 192.98805089 -95.33275483 192.2761506 -95.33438528 191.54267758 C-95.36047623 180.05181683 -95.40777623 168.56113635 -95.46291678 157.07038247 C-95.51904001 145.27642049 -95.55235563 133.48255283 -95.56453097 121.68846279 C-95.57202266 115.06440194 -95.59077536 108.44067632 -95.63438034 101.81674004 C-95.67508594 95.58277349 -95.68767278 89.34938414 -95.67864609 83.11529732 C-95.6802976 80.82676177 -95.69224407 78.53820705 -95.71523285 76.24978638 C-95.7450866 73.12487534 -95.73790998 70.00214344 -95.7215271 66.87718201 C-95.73900415 65.9715262 -95.7564812 65.0658704 -95.77448785 64.13277048 C-95.69371587 58.43312629 -94.50221976 55.4712013 -90.52021182 51.35833699 C-88.56252465 49.6091078 -86.60889597 48.21240914 -84.3125 46.9375 C-83.44625 46.44894531 -82.58 45.96039062 -81.6875 45.45703125 C-80.3571875 44.73580078 -80.3571875 44.73580078 -79 44 C-78.154375 43.52949219 -77.30875 43.05898438 -76.4375 42.57421875 C-72.57292491 40.44065125 -68.68217017 38.35968973 -64.77734375 36.30078125 C-55.88825668 31.60521699 -47.1212588 26.71621636 -38.38378906 21.74389648 C-35.59252481 20.15662605 -32.7969216 18.57727719 -30 17 C-28.99517578 16.42797852 -27.99035156 15.85595703 -26.95507812 15.26660156 C-25.97474609 14.71713867 -24.99441406 14.16767578 -23.984375 13.6015625 C-23.09975586 13.10221191 -22.21513672 12.60286133 -21.30371094 12.08837891 C-19 11 -19 11 -16 11 C-16 10.34 -16 9.68 -16 9 C-13.71070947 7.82845707 -11.41881638 6.66261926 -9.125 5.5 C-8.14853516 4.99919922 -8.14853516 4.99919922 -7.15234375 4.48828125 C-2.2265625 2 -2.2265625 2 0 2 C0 1.34 0 0.68 0 0 Z " fill="#A94BAF" transform="translate(210,777)"/>
<path d="M0 0 C0.99 0 1.98 0 3 0 C3.0228665 52.83450268 3.04049829 105.66900486 3.05106533 158.50351151 C3.0523161 164.73476289 3.05361042 170.96601426 3.05493164 177.19726562 C3.05532511 179.05813639 3.05532511 179.05813639 3.05572652 180.9566005 C3.06008315 201.06938142 3.06797065 221.1821595 3.0771528 241.29493873 C3.08648954 261.91767451 3.09205565 282.5404088 3.09408849 303.16314662 C3.09546368 315.89835959 3.09981402 328.63356452 3.10791647 341.36877503 C3.11318418 350.09033779 3.11480424 358.81189636 3.11350138 367.5334606 C3.11285804 372.57257695 3.11387506 377.6116792 3.11920547 382.65079308 C3.12404288 387.25722466 3.12433638 391.86363256 3.12089889 396.47006519 C3.12047354 398.1430377 3.12176641 399.81601163 3.12488318 401.48898129 C3.1288535 403.75024899 3.12675937 406.0114294 3.12304783 408.27269554 C3.12342755 409.5326076 3.12380727 410.79251965 3.1241985 412.09061086 C3 415 3 415 2 417 C-14.75377844 417.15561406 -31.5076057 417.3035619 -48.26152611 417.4429636 C-56.04482865 417.50789392 -63.82809748 417.57511295 -71.61132812 417.64819336 C-78.41405132 417.71206099 -85.21679845 417.77115322 -92.01960814 417.82505554 C-95.60448526 417.85361286 -99.18931301 417.88418846 -102.77412033 417.92053413 C-123.54102423 418.12899277 -144.24758276 417.74610743 -165 417 C-165 416.67 -165 416.34 -165 416 C-131.34 416 -97.68 416 -63 416 C-63.01047363 404.63602783 -63.02094727 393.27205566 -63.03173828 381.5637207 C-63.06381992 345.22741498 -63.08607706 308.89110921 -63.10213066 272.55479302 C-63.10463215 266.91323763 -63.10722079 261.27168228 -63.10986328 255.63012695 C-63.1103879 254.50696735 -63.11091252 253.38380775 -63.11145304 252.22661301 C-63.12016205 234.02671217 -63.13593474 215.82682393 -63.15430559 197.62693057 C-63.17299086 178.96023237 -63.18411381 160.29354079 -63.18817699 141.62683362 C-63.1909249 130.10310575 -63.19961237 118.57941348 -63.21583293 107.05569657 C-63.22638287 99.15968219 -63.22960515 91.2636863 -63.22700275 83.36766539 C-63.22571836 78.80814657 -63.22772448 74.24869009 -63.23841095 69.68918228 C-63.24811751 65.51741736 -63.24865184 61.34575694 -63.24179779 57.17398729 C-63.24095021 55.66246613 -63.24350924 54.15093854 -63.24976636 52.63943008 C-63.25776381 50.58875878 -63.25228337 48.53804805 -63.24609566 46.48737049 C-63.24723482 44.77692026 -63.24723482 44.77692026 -63.24839699 43.03191549 C-62.94289468 39.30297669 -62.19374296 36.30141389 -59.63037109 33.50683594 C-53.13658482 28.73581619 -46.02623212 25.12187614 -38.88937378 21.42355347 C-35.07904255 19.44877904 -31.2807004 17.45115039 -27.48046875 15.45703125 C-26.7402095 15.0694313 -25.99995026 14.68183136 -25.23725891 14.28248596 C-19.43081792 11.2387769 -13.66394935 8.12953057 -7.9375 4.9375 C-7.21965332 4.53885742 -6.50180664 4.14021484 -5.76220703 3.72949219 C-2.69566346 2.12361507 -2.69566346 2.12361507 0 0 Z " fill="#A94CAF" transform="translate(465,913)"/>
<path d="M0 0 C0.13954323 8.31938163 0.24589278 16.63826749 0.31087303 24.95853329 C0.34207416 28.82279484 0.38433622 32.68625082 0.45263672 36.55004883 C0.51823773 40.28487018 0.55379024 44.01892098 0.56926346 47.75427437 C0.58027767 49.17320435 0.6017857 50.59209618 0.63438034 52.0106945 C0.83223719 60.98579924 0.31788928 67.29574626 -6 74 C-8.55712891 76.37402344 -8.55712891 76.37402344 -11.1015625 78.109375 C-12.05579102 78.76099609 -13.01001953 79.41261719 -13.99316406 80.08398438 C-19.03523784 83.296894 -24.16878125 86.31178629 -29.375 89.25 C-30.50333252 89.89404785 -31.63166504 90.5380957 -32.79418945 91.20166016 C-36.19279335 93.1403695 -39.59598703 95.07080773 -43 97 C-46.730709 99.12229957 -50.45950932 101.24792965 -54.1875 103.375 C-55.04472656 103.86363525 -55.90195313 104.35227051 -56.78515625 104.85571289 C-64.25867025 109.12556702 -71.64257145 113.53386862 -79 118 C-88.44755542 123.73488732 -97.97138626 129.31082091 -107.59228516 134.7512207 C-112.22246642 137.37716844 -116.78967791 140.0664614 -121.28027344 142.92529297 C-123.49099951 144.30683984 -125.76599647 145.56836454 -128.0390625 146.84375 C-130.4731436 148.27898507 -132.8219065 149.82956929 -135.1875 151.375 C-140.04901756 154.50648786 -145.03829783 157.09472958 -150.2734375 159.54296875 C-153.16054357 161.08579191 -155.46783662 162.93569177 -158 165 C-160.16796875 166.265625 -160.16796875 166.265625 -162.1875 167.25 C-162.86167969 167.58515625 -163.53585938 167.9203125 -164.23046875 168.265625 C-166 169 -166 169 -168 169 C-168 169.66 -168 170.32 -168 171 C-170.44111325 172.67390623 -172.80478747 173.9238195 -175.5625 175 C-178.10678886 176.04381081 -179.80952968 177.35112949 -182 179 C-183.503321 179.9249202 -185.02473908 180.82104588 -186.5625 181.6875 C-187.32691406 182.12449219 -188.09132812 182.56148437 -188.87890625 183.01171875 C-191 184 -191 184 -194 184 C-185.11328125 175.11328125 -185.11328125 175.11328125 -183.52783203 173.52978516 C-182.10116188 172.10129121 -180.68117849 170.66612774 -179.26171875 169.23046875 C-176.96082947 166.96137068 -174.52173416 165.01738733 -172 163 C-170.31874233 161.34600597 -168.65546004 159.67951419 -167 158 C-164.39866896 155.37217591 -161.79351608 152.74817706 -159.1875 150.125 C-158.51396484 149.44308594 -157.84042969 148.76117187 -157.14648438 148.05859375 C-153.20589529 144.09915018 -149.15770309 140.35504377 -144.92602539 136.70996094 C-141.22868327 133.42739227 -137.83561541 129.83726349 -134.40625 126.27929688 C-132.97301047 124.81718878 -131.49037458 123.40382308 -130 122 C-129.34 122 -128.68 122 -128 122 C-127.505 120.515 -127.505 120.515 -127 119 C-125.50390625 117.52734375 -125.50390625 117.52734375 -123.5625 115.9375 C-119.25718158 112.29811213 -115.32789901 108.36706926 -111.39453125 104.33203125 C-109 102 -109 102 -106.51171875 100.01171875 C-103.79134896 97.83288447 -101.43537858 95.49512091 -99 93 C-96.23366774 90.20385969 -93.46022682 87.41479726 -90.6875 84.625 C-89.96626953 83.89539063 -89.24503906 83.16578125 -88.50195312 82.4140625 C-84.43158432 78.32544092 -80.26710366 74.43796206 -75.89526367 70.67480469 C-72.89539211 68.02388122 -70.10789708 65.17582897 -67.3125 62.3125 C-63.69772609 58.61176238 -60.09772327 55.17768177 -56 52 C-53.35592746 49.48813108 -50.97439078 46.96816151 -48.6875 44.125 C-45.54379682 40.28160113 -41.78748987 37.18870576 -38 34 C-34.65289274 31.17048664 -31.37867668 28.38748312 -28.3125 25.25 C-26 23 -26 23 -23.8125 21.9375 C-21.84574538 21.14627651 -21.84574538 21.14627651 -21.0793457 19.15063477 C-19.93610681 16.87269054 -18.71027422 15.45207847 -16.91796875 13.65234375 C-16.01401367 12.74452148 -16.01401367 12.74452148 -15.09179688 11.81835938 C-14.46337891 11.19767578 -13.83496094 10.57699219 -13.1875 9.9375 C-12.57068359 9.31294922 -11.95386719 8.68839844 -11.31835938 8.04492188 C-3.23909418 0 -3.23909418 0 0 0 Z " fill="#3772AB" transform="translate(213,501)"/>
<path d="M0 0 C0.33 0 0.66 0 1 0 C1.00097681 0.85620827 1.00195362 1.71241654 1.00296003 2.59457052 C1.06117572 53.29030868 1.13492961 103.98600381 1.22898628 154.68168881 C1.24025505 160.76272723 1.2513934 166.84376588 1.26245117 172.92480469 C1.26465486 174.13547905 1.26685854 175.34615341 1.269129 176.59351487 C1.3045444 196.2212981 1.32938455 215.84908128 1.35034702 235.47688465 C1.37207534 255.60244082 1.40509734 275.72795537 1.44870156 295.85347617 C1.47526958 308.28159928 1.49292696 320.70967049 1.49934604 333.13782062 C1.50458422 341.64916812 1.520748 350.1604502 1.54566566 358.67176269 C1.55973475 363.58938948 1.56883144 368.506899 1.56500816 373.4245472 C1.56161888 377.92004679 1.57184053 382.41529513 1.59323552 386.91074319 C1.59854048 388.54333002 1.59869995 390.17594271 1.59339563 391.80852954 C1.58695119 394.01561538 1.59867314 396.22185447 1.61523914 398.42886925 C1.61713775 399.65840368 1.61903635 400.88793811 1.62099248 402.15473115 C1.74606496 403.09366987 1.87113744 404.03260859 2 405 C2.99 405.66 3.98 406.32 5 407 C3.35 407.66 1.7 408.32 0 409 C0 274.03 0 139.06 0 0 Z " fill="#0D9B8D" transform="translate(1,287)"/>
<path d="M0 0 C0.33 0 0.66 0 1 0 C1.00238835 0.83306105 1.00477671 1.66612209 1.00723743 2.52442741 C1.06630744 22.77067072 1.14180585 43.01679419 1.23571491 63.26290703 C1.2807297 73.05367839 1.32013112 82.84441292 1.34643555 92.63525391 C1.36936975 101.16640002 1.4027161 109.6974301 1.44870156 118.22848427 C1.47269583 122.74794066 1.49138381 127.26728169 1.49761391 131.78680038 C1.50363688 136.03691868 1.52353466 140.28674159 1.55427551 144.53675079 C1.56310073 146.10007048 1.56676912 147.6634287 1.56500816 149.22677231 C1.56336747 151.35464248 1.57994899 153.48159911 1.60127258 155.60934448 C1.60588155 156.8021446 1.61049051 157.99494473 1.61523914 159.2238903 C1.74221023 160.1400065 1.86918131 161.0561227 2 162 C2.99 162.66 3.98 163.32 5 164 C2.525 164.99 2.525 164.99 0 166 C0 111.22 0 56.44 0 0 Z " fill="#0B8399" transform="translate(1,530)"/>
<path d="M0 0 C0.99 0.495 0.99 0.495 2 1 C-1.12572471 4.15072128 -4.2549331 7.29793136 -7.38720703 10.44213867 C-8.44900861 11.50892297 -9.50990558 12.57660853 -10.56982422 13.64526367 C-15.97633037 19.09516482 -21.39293049 24.46501536 -27.234375 29.45483398 C-30.13435347 31.99271614 -32.81015325 34.74307478 -35.5 37.5 C-38.83030143 40.91335134 -42.19402877 44.20706439 -45.8125 47.31640625 C-50.60759082 51.45981526 -55.04458058 55.93491409 -59.5 60.4375 C-60.73363281 61.67790039 -60.73363281 61.67790039 -61.9921875 62.94335938 C-63.99712113 64.95994959 -65.99966253 66.97885236 -68 69 C-68.66 68.67 -69.32 68.34 -70 68 C-67.78255247 64.95100965 -65.42405865 62.42597255 -62.5625 60 C-58.67317191 56.68498391 -55.08742875 53.13320383 -51.5 49.5 C-47.51648884 45.47070135 -43.49463982 41.6116674 -39.16796875 37.94921875 C-35.51150935 34.66169939 -32.09170022 31.13151742 -28.65429688 27.6171875 C-25.5870126 24.50133478 -22.46244857 21.68504216 -19 19 C-16.35592746 16.48813108 -13.97439078 13.96816151 -11.6875 11.125 C-8.55821349 7.27587762 -4.77065434 4.19800824 -1 1 C-0.67 0.67 -0.34 0.34 0 0 Z " fill="#3082A8" transform="translate(176,534)"/>
<path d="M0 0 C0.33 0 0.66 0 1 0 C1.00586624 0.69713104 1.01173248 1.39426208 1.01777649 2.11251831 C1.07562927 8.67551732 1.14766242 15.23818848 1.23571491 21.80085564 C1.28048366 25.17499285 1.31972472 28.54900752 1.34643555 31.92333984 C1.37984936 35.80076365 1.4321593 39.67753433 1.48828125 43.5546875 C1.49467117 44.76929657 1.5010611 45.98390564 1.50764465 47.23532104 C1.53733589 48.91683762 1.53733589 48.91683762 1.56762695 50.63232422 C1.57873001 51.62271698 1.58983307 52.61310974 1.60127258 53.6335144 C1.73285263 54.41445465 1.86443268 55.1953949 2 56 C2.99 56.66 3.98 57.32 5 58 C3.35 58.66 1.7 59.32 0 60 C0 40.2 0 20.4 0 0 Z " fill="#0C7D9F" transform="translate(1,636)"/>
<path d="M0 0 C1.485 0.2475 1.485 0.2475 3 0.5 C0.73762373 2.97266124 -1.57453333 4.563866 -4.5 6.1875 C-5.66015625 6.84298828 -5.66015625 6.84298828 -6.84375 7.51171875 C-9 8.5 -9 8.5 -12 8.5 C-4.6302149 -0.07574994 -4.6302149 -0.07574994 0 0 Z " fill="#3D69AE" transform="translate(31,676.5)"/>
<path d="M0 0 C0.33 0 0.66 0 1 0 C1.03738281 0.77085937 1.07476562 1.54171875 1.11328125 2.3359375 C1.17902344 3.33882812 1.24476563 4.34171875 1.3125 5.375 C1.37050781 6.37273438 1.42851563 7.37046875 1.48828125 8.3984375 C1.65714844 9.25695312 1.82601563 10.11546875 2 11 C2.99 11.66 3.98 12.32 5 13 C3.35 13.66 1.7 14.32 0 15 C0 10.05 0 5.1 0 0 Z " fill="#187EA4" transform="translate(1,681)"/>
<path d="M0 0 C0.66 0.33 1.32 0.66 2 1 C-0.36620011 3.61527381 -2.942048 5.26440562 -6 7 C-6.66 6.34 -7.32 5.68 -8 5 C-6.71475739 4.13619741 -5.42157581 3.28419631 -4.125 2.4375 C-3.04605469 1.72400391 -3.04605469 1.72400391 -1.9453125 0.99609375 C-1.30335938 0.66738281 -0.66140625 0.33867188 0 0 Z " fill="#6FDA98" transform="translate(386,56)"/>
<path d="M0 0 C2 1 2 1 2 1 Z " fill="#B592D3" transform="translate(572,907)"/>
<path d="M0 0 C2 1 2 1 2 1 Z " fill="#A391CE" transform="translate(921,513)"/>
<path d="M0 0 C2 1 2 1 2 1 Z " fill="#C3B7DB" transform="translate(924,511)"/>
<path d="M0 0 C2 1 2 1 2 1 Z " fill="#B8A8D9" transform="translate(926,510)"/>
<path d="" fill="#E7C9EE" transform="translate(0,0)"/>
<path d="" fill="#C195D9" transform="translate(0,0)"/>
<path d="" fill="#C6A2E0" transform="translate(0,0)"/>
<path d="" fill="#A87CCA" transform="translate(0,0)"/>
<path d="" fill="#B0A2D0" transform="translate(0,0)"/>
<path d="" fill="#D3C7E7" transform="translate(0,0)"/>
</svg>
